<svg xmlns="http://www.w3.org/2000/svg" viewBox="0 0 529.315 504.372"><defs><style>.a{fill:#fff;}</style></defs><title>altheart</title><path class="a" d="M667.969,189.515c-15.789-72-85.249-119.346-157.7-106.764-46.793,8.127-80.605,34.32-102.081,76.578-.438.862-.906,1.709-1.664,3.134-.711-1.285-1.125-1.948-1.46-2.649-25.839-54.167-84.827-87.9-148.268-77.035-36.635,6.275-66.08,24.755-88.157,54.548-23.553,31.787-30.479,67.766-25.2,106.452,3.364,24.635,11.264,47.886,22.294,70.108,17.267,34.783,40.48,65.346,67.051,93.411a703.127,703.127,0,0,0,83.733,75.016c5.633,14.351,16.8,30.43,34.327,49.731,16.107,17.741,32.043,31.967,32.713,32.564L406.583,585.1l21.823-21.758c.648-.646,16.05-16.03,31.68-33.993a335.63,335.63,0,0,0,22.966-29,125.208,125.208,0,0,0,8.811-14.616q30.727-23.232,59.186-49.512c30.107-27.869,57.435-58.183,79.51-92.929,20.18-31.764,35.011-65.608,39.32-103.431C671.8,222.977,671.626,206.2,667.969,189.515Zm-301.731-10.37c10.969-11.093,70.1-9.917,78.553,0s-2.336,60.42-11.7,65.183-48.422,4.241-55.155,0S355.268,190.237,366.238,179.145Zm-52.213,58.144s-97.746-48.212-140.731-105.915a136.287,136.287,0,0,1,39.211-33.217C254.218,137.264,354.3,164.98,354.3,164.98,334.565,184.992,322.61,210.048,314.025,237.289Zm91.346,302.834-.006.007-.051.051-.067-.06-.015-.013h0c-2.342-2.095-60.41-54.295-60.41-79.33,0-25.549,45.289-186.406,45.289-186.406H419.3s46.213,169.143,46.213,187.465C465.513,479.843,407.379,538.116,405.371,540.123Zm88.121-302.834c-8.585-27.242-20.54-52.3-40.273-72.309,0,0,103.132-28.56,143.646-68.6a138.818,138.818,0,0,1,39.96,31.467C595.308,187.1,493.492,237.289,493.492,237.289Z" transform="translate(-141.776 -80.727)"/></svg>