<svg xmlns="http://www.w3.org/2000/svg" viewBox="0 0 106.523 81.986"><defs><style>.a{fill:#fff;}</style></defs><title>cameraicon</title><path class="a" d="M395.945,347.278H351.794c-5.749,0-9.094-3.334-9.095-9.072q0-25.914,0-51.829c0-5.259,3.438-8.734,8.688-8.75,5.479-.017,10.958-.027,16.437,0a8.343,8.343,0,0,0,8.193-5.147c.41-.865.829-1.728,1.278-2.575a7.976,7.976,0,0,1,7.346-4.563q11.335-.1,22.675,0a7.932,7.932,0,0,1,7.322,4.595c.5.956.966,1.928,1.452,2.89a8.071,8.071,0,0,0,7.677,4.788c5.479.014,10.958,0,16.437.006,5.677,0,9.017,3.351,9.017,9.024q0,25.854,0,51.709c0,5.506-3.4,8.918-8.884,8.919Q418.141,347.282,395.945,347.278Zm28.671-36.908a28.657,28.657,0,1,0-28.536,28.686A28.633,28.633,0,0,0,424.616,310.37Zm4.133-20.4a4.1,4.1,0,0,0,4.156,4.061,4.166,4.166,0,0,0,4.021-4.1,4.08,4.08,0,0,0-4.24-4.082A4.029,4.029,0,0,0,428.749,289.973Z" transform="translate(-342.698 -265.292)"/><path class="a" d="M355.037,273.421c.3-2.487,1.758-3.9,4.09-3.989,1.353-.054,2.712-.055,4.064,0a3.959,3.959,0,0,1,4.012,3.989Z" transform="translate(-342.698 -265.292)"/><path class="a" d="M375.506,310.4a20.455,20.455,0,1,1,20.275,20.452A20.378,20.378,0,0,1,375.506,310.4Z" transform="translate(-342.698 -265.292)"/></svg>