<svg xmlns="http://www.w3.org/2000/svg" viewBox="0 0 287.597 264.233"><defs><style>.a{fill:#ee337a;}</style></defs><title>homeiconpink</title><path class="a" d="M424.107,311.942c-18.273,0-35.594.044-52.914-.038-3.354-.016-3.183,2.056-3.181,4.306q.021,22.746.006,45.492c0,15.664-.125,31.329.075,46.991.059,4.667-1.4,6.594-6.275,6.56q-34.75-.235-69.5-.019c-4.515.021-6.213-1.769-6.2-6.247.09-36.494-.009-72.988.2-109.48a9.216,9.216,0,0,1,3.366-6.5c33.99-24.051,68.144-47.869,102.2-71.827,3.106-2.186,5.534-1.988,8.554.135q50.488,35.48,101.116,70.762a8.229,8.229,0,0,1,3.812,7.523c-.078,36.327-.033,72.654-.066,108.981,0,5.83-.814,6.582-6.719,6.589q-34,.038-68,0c-5.893-.007-6.454-.621-6.456-6.716q-.019-44.991-.007-89.984Z" transform="translate(-252.264 -151.021)"/><path class="a" d="M396.083,151.336a45.072,45.072,0,0,1,4.441,2.413q67.967,47.506,135.929,95.016c3.851,2.686,4.476,5.2,1.681,9.047-5.581,7.673-10.893,15.542-16.351,23.305-3.394,4.827-4.722,5.031-9.75,1.513q-55.868-39.1-111.665-78.292c-3.273-2.308-5.349-2.3-8.615,0q-55.108,38.874-110.433,77.44c-6.774,4.743-7.2,4.676-11.819-1.911-5.162-7.361-10.21-14.807-15.512-22.066-2.805-3.84-2.154-6.363,1.692-9.046q68.007-47.449,135.91-95.05A41.12,41.12,0,0,1,396.083,151.336Z" transform="translate(-252.264 -151.021)"/><path class="a" d="M504.96,179.625c0,7.66.077,15.322-.028,22.98-.07,5.135-3.319,6.959-7.54,4.076-10.446-7.132-20.82-14.375-31.037-21.829a7.93,7.93,0,0,1-2.756-5.412c-.312-7.481-.166-14.982-.119-22.476.025-4.019,1.865-6.015,6.172-5.941,9.824.168,19.654.121,29.48.022,4.291-.043,5.951,1.911,5.87,6.1C504.856,164.636,504.961,172.131,504.96,179.625Z" transform="translate(-252.264 -151.021)"/></svg>