<svg xmlns="http://www.w3.org/2000/svg" viewBox="0 0 626.205 367.874"><defs><style>.a{fill:#fff;}</style></defs><title>icon1</title><path class="a" d="M361.631,203.946A33.356,33.356,0,1,0,328.246,170.5,33.318,33.318,0,0,0,361.631,203.946Z" transform="translate(-91.487 -137.233)"/><path class="a" d="M493.941,298.84l-63.7-16.068-30.175-69.088v-.042h-.018l-.033-.076-.172.075c-3.46-.012-48.058-.164-75.921,0l-.007,1.08L263.473,342.236c-3.461,14.952,16.222,23.732,24.226,11.483l36.107-76.178q0,103.716.006,207.434c0,1.556-.032,3.12.114,4.665,1.149,12.1,13.859,19.158,24.363,13.464,6.424-3.482,8.833-9.181,8.821-16.3q-.087-51.21-.021-102.42a31.6,31.6,0,0,1,.126-4.039,4.624,4.624,0,0,1,4.576-4.289,4.848,4.848,0,0,1,4.961,4.259,21.443,21.443,0,0,1,.077,3.108q0,45.918,0,91.836c0,4.461-.116,8.929.063,13.384a16.786,16.786,0,0,0,19.417,16.184c8.445-1.427,13.862-8.282,13.865-17.633q.015-59.926,0-119.854c0-23.156,0-59.734,0-86.395l5.829,13.346c2.562,7.656,8.093,12.782,17.654,14.472l63.716,16.071C501.926,326.455,507.677,305.684,493.941,298.84Z" transform="translate(-91.487 -137.233)"/><path class="a" d="M619.13,203.946A33.356,33.356,0,1,1,652.514,170.5,33.318,33.318,0,0,1,619.13,203.946Z" transform="translate(-91.487 -137.233)"/><path class="a" d="M190.049,203.946A33.356,33.356,0,1,0,156.665,170.5,33.318,33.318,0,0,0,190.049,203.946Z" transform="translate(-91.487 -137.233)"/><path class="a" d="M717.288,342.236,656.849,214.725l-.007-1.08c-3.359-.02-6.963-.036-10.707-.048a42.71,42.71,0,0,1-7.255,17.895A54.723,54.723,0,0,0,621.6,213.567l-4.967,0a54.737,54.737,0,0,0-17.273,17.923,42.721,42.721,0,0,1-7.253-17.884c-6.081.015-10.228.03-11.191.033l-.171-.075-.033.076H580.7v.042l-30.175,69.088-63.7,16.068c-13.737,6.844-7.985,27.615,6.557,26l63.716-16.071c9.561-1.69,15.092-6.816,17.654-14.472l5.829-13.346c0,26.661,0,63.239,0,86.395q0,59.928,0,119.854c0,9.351,5.42,16.206,13.865,17.633a16.785,16.785,0,0,0,19.416-16.184c.18-4.455.064-8.923.064-13.384q0-45.918,0-91.836a21.3,21.3,0,0,1,.077-3.108,4.848,4.848,0,0,1,4.96-4.259,4.624,4.624,0,0,1,4.576,4.289,31.415,31.415,0,0,1,.127,4.039q.009,51.21-.021,102.42c-.012,7.118,2.4,12.817,8.821,16.3,10.5,5.694,23.213-1.361,24.363-13.464.146-1.545.113-3.109.113-4.665q.008-103.718.006-207.434l36.108,76.178C701.066,365.968,720.749,357.188,717.288,342.236Zm-98.175-126.85c2.321,0,10.236,9.462,10.236,11.1s-6.66,7.242-6.66,7.242a.893.893,0,0,1-.577.26c-2,.019-4.007.015-6.01.005a.693.693,0,0,1-.463-.154s-6.773-5.51-6.773-7.328S616.792,215.386,619.113,215.386ZM633.4,281.553c-.337,1.56-9.426,12.56-14.041,18.407-.073.093-.155.179-.253.293-.936-1.185-1.853-2.344-2.768-3.5-3.781-4.793-10.61-11.654-11.516-15.14s7.233-29.868,10.836-44.806c.08-.328.187-.456.548-.452,1.95.018,3.9.012,5.849,0,.313,0,.431.085.506.4q4.173,17.314,8.367,34.625S633.734,279.992,633.4,281.553Z" transform="translate(-91.487 -137.233)"/><path class="a" d="M289.187,342.236l-60.7-128.07,0-.524s-47.141-.172-76.144,0l-.007,1.08L91.891,342.236c-3.461,14.952,16.222,23.732,24.226,11.483l36.108-76.178q0,103.716.006,207.434c0,1.556-.033,3.12.114,4.665,1.149,12.1,13.858,19.158,24.362,13.464,6.424-3.482,8.833-9.181,8.821-16.3q-.085-51.21-.021-102.42a31.6,31.6,0,0,1,.127-4.039,4.624,4.624,0,0,1,4.576-4.289,4.848,4.848,0,0,1,4.96,4.259,21.3,21.3,0,0,1,.077,3.108q0,45.918,0,91.836c0,4.461-.116,8.929.064,13.384a16.785,16.785,0,0,0,19.416,16.184c8.445-1.427,13.863-8.282,13.865-17.633q.017-59.926,0-119.854c0-24.317,0-63.436,0-90.328l36.358,76.706C272.965,365.968,292.648,357.188,289.187,342.236ZM214.45,247.749a22.186,22.186,0,0,1-3.693,10.159,43.754,43.754,0,0,1-7.363,8.6,73.916,73.916,0,0,1-12.656,9.379,1.219,1.219,0,0,1-1.351,0,70.571,70.571,0,0,1-15.368-12.069,35.671,35.671,0,0,1-6.193-8.628,20.864,20.864,0,0,1-2.06-6.475,12.94,12.94,0,0,1,2.326-9.832,12.438,12.438,0,0,1,8.142-5.039,12.749,12.749,0,0,1,13.695,7.113c.031.065.069.126.139.255.077-.155.124-.251.173-.347a12.492,12.492,0,0,1,9.24-7,12.7,12.7,0,0,1,14.219,8.086A13.045,13.045,0,0,1,214.45,247.749Z" transform="translate(-91.487 -137.233)"/></svg>