<svg xmlns="http://www.w3.org/2000/svg" viewBox="0 0 687.952 193.591"><defs><style>.a{fill:#2768b3;}.b{font-size:154.063px;fill:#434343;font-family:OpenSans-Bold, Open Sans;font-weight:700;}.c{fill:#231f20;}.d{fill:#fff;}.e{fill:#ee337a;}</style></defs><title>tindinlogo</title><rect class="a" x="514.352" width="173.6" height="173.6" rx="10"/><text class="b" transform="translate(154.054 148.456)">Tind<tspan class="c" x="334.982" y="0"> </tspan><tspan class="d" x="375.002" y="0">in</tspan></text><path class="e" d="M125.059,257.452c.2-.372.32-.594.435-.819,5.613-11.044,14.449-17.889,26.679-20.013a36.021,36.021,0,0,1,41.212,27.9,39.882,39.882,0,0,1,.5,13.157c-1.126,9.885-5,18.73-10.276,27.031A123.8,123.8,0,0,1,162.829,329a209.033,209.033,0,0,1-35.87,26.591,3.445,3.445,0,0,1-3.822,0,199.578,199.578,0,0,1-43.483-34.151A100.957,100.957,0,0,1,62.13,297.027,59.053,59.053,0,0,1,56.3,278.7c-1.381-10.111.429-19.514,6.585-27.821a35.2,35.2,0,0,1,23.039-14.256,36.081,36.081,0,0,1,38.75,20.133C124.765,256.943,124.873,257.116,125.059,257.452Z" transform="translate(-55.867 -203.278)"/><path class="d" d="M121.9,359.36c-4.045-3.6-17.242-15.969-17.242-23.944,0-6.917,9.993-42.76,12-49.875l.877-3.116h14.127l.86,3.148c2.869,10.5,12.229,45.144,12.229,50.12,0,5.424-9.238,15.773-16.989,23.5l-2.851,2.844Z" transform="translate(-55.867 -203.278)"/><path class="e" d="M128.4,286.7s12.077,44.2,12.077,48.994-15.733,20.475-15.733,20.475-15.809-14.075-15.809-20.752S120.768,286.7,120.768,286.7H128.4m6.525-8.547H114.3l-1.754,6.231c-3.655,12.981-12.157,43.941-12.157,51.033,0,5.169,3.123,10.914,10.124,18.625,4.21,4.637,8.375,8.355,8.55,8.511l6.015,5.355,5.7-5.686c.169-.169,4.194-4.19,8.279-8.884,8.3-9.537,9.966-13.822,9.966-17.644,0-4.906-6.732-30.576-12.38-51.247l-1.72-6.294Z" transform="translate(-55.867 -203.278)"/><path class="d" d="M114.529,261.812c2.867-2.9,18.321-2.592,20.53,0s-.611,15.79-3.058,17.035-12.655,1.109-14.414,0S111.662,264.711,114.529,261.812Z" transform="translate(-55.867 -203.278)"/><path class="d" d="M185.246,248.405a36.262,36.262,0,0,0-10.443-8.224c-10.588,10.465-37.542,17.929-37.542,17.929,5.157,5.23,8.282,11.778,10.526,18.9C147.787,277.008,174.4,263.891,185.246,248.405Z" transform="translate(-55.867 -203.278)"/><path class="d" d="M111.409,258.11s-26.156-7.244-37.057-17.464A35.624,35.624,0,0,0,64.1,249.327c11.234,15.081,36.779,27.681,36.779,27.681C103.127,269.888,106.251,263.34,111.409,258.11Z" transform="translate(-55.867 -203.278)"/></svg>